<?xml version="1.0" encoding="UTF-8"?>
<svg xmlns="http://www.w3.org/2000/svg" version="1.1" viewBox="0 0 1920 1080">
  <!-- Generator: Adobe Illustrator 30.0.0, SVG Export Plug-In . SVG Version: 2.1.1 Build 123)  -->
  <defs>
    <style>
      .st0, .st1, .st2 {
        fill: #f2f2f2;
      }

      .st0, .st3 {
        font-family: Inter18pt-Regular, 'Inter 18pt';
        font-size: 25.72px;
      }

      .st4, .st3 {
        fill: #989795;
      }

      .st5, .st6, .st2 {
        font-family: Inter18pt-Bold, 'Inter 18pt';
        font-size: 128.01px;
        font-weight: 700;
      }

      .st5, .st7 {
        fill: #fc6530;
      }
    </style>
  </defs>
  <g id="Layer_1">
    <rect class="st7" x="43.81" y="39.78" width="439.01" height="993.54" rx="27.71" ry="27.71"/>
    <rect x="508.27" y="39.78" width="439.01" height="993.54" rx="27.71" ry="27.71"/>
    <rect class="st4" x="972.72" y="39.78" width="439.01" height="993.54" rx="27.71" ry="27.71"/>
    <rect class="st1" x="1437.17" y="39.78" width="439.01" height="993.54" rx="27.71" ry="27.71"/>
    <text class="st2" transform="translate(200.26 982.92) rotate(-90)"><tspan x="0" y="0">Futuristic</tspan></text>
    <text class="st5" transform="translate(666.53 982.92) rotate(-90)"><tspan x="0" y="0">Unlimited</tspan></text>
    <text class="st6" transform="translate(1107.14 982.92) rotate(-90)"><tspan x="0" y="0">Solutions</tspan></text>
    <text class="st5" transform="translate(1580.92 982.92) rotate(-90)"><tspan x="0" y="0">Vision</tspan></text>
  </g>
  <g id="Swatch_Info_Layer">
    <text class="st0" transform="translate(77.04 93.93)"><tspan x="0" y="0" xml:space="preserve">HEX       #FC6530</tspan><tspan x="0" y="30.86" xml:space="preserve">RGB       </tspan><tspan x="0" y="61.73">48,101,252</tspan><tspan x="0" y="92.59" xml:space="preserve">CMYK    0.87,75,0</tspan></text>
    <text class="st0" transform="translate(544.3 93.93)"><tspan x="0" y="0" xml:space="preserve">HEX       #000000</tspan><tspan x="0" y="30.86" xml:space="preserve">RGB       0,0,0</tspan><tspan x="0" y="61.73" xml:space="preserve">CMYK    90,67,68,75</tspan></text>
    <text class="st0" transform="translate(996.57 93.93)"><tspan x="0" y="0" xml:space="preserve">HEX       #989795</tspan><tspan x="0" y="30.86" xml:space="preserve">RGB       149,151,152</tspan><tspan x="0" y="61.73" xml:space="preserve">CMYK    1,37,36,43</tspan></text>
    <text class="st3" transform="translate(1464.88 93.93)"><tspan x="0" y="0" xml:space="preserve">HEX       #F2F2F2</tspan><tspan x="0" y="30.86" xml:space="preserve">RGB       242,242,242</tspan><tspan x="0" y="61.73" xml:space="preserve">CMYK    0,2,2,4</tspan></text>
  </g>
</svg>