<svg xmlns="http://www.w3.org/2000/svg" viewBox="415 425 1090 230" fill="#0a0a0a">
  <circle cx="1212.56" cy="620.1" r="27.63" fill="#fc6530"/>
  <circle cx="1477.57" cy="451.58" r="22.1"/>
  <path d="M764.78,486.59l-40.5,111.66c-4.12,11.36-14.41,12.24-17.46,12.24-3.05,0-13.34-.88-17.46-12.24l-40.5-111.67h-39.5l45.09,124.32c8.09,22.3,28.64,36.71,52.37,36.71h0c23.72,0,44.28-14.41,52.37-36.71l45.09-124.32h-39.5Z"/>
  <rect x="552.68" y="486.59" width="37.13" height="161.13"/>
  <rect x="1459.01" y="486.59" width="37.13" height="161.8"/>
  <path d="M503.64,650.52c-45.94,0-83.32-37.38-83.32-83.32s37.38-83.32,83.32-83.32,83.32,37.38,83.32,83.32-37.38,83.32-83.32,83.32ZM503.64,521.02c-25.47,0-46.19,20.72-46.19,46.19s20.72,46.19,46.19,46.19,46.19-20.72,46.19-46.19-20.72-46.19-46.19-46.19Z"/>
  <rect x="936.13" y="486.59" width="37.13" height="161.13"/>
  <path d="M887.09,650.52c-45.94,0-83.32-37.38-83.32-83.32s37.38-83.32,83.32-83.32,83.32,37.38,83.32,83.32-37.38,83.32-83.32,83.32ZM887.09,521.02c-25.47,0-46.19,20.72-46.19,46.19s20.72,46.19,46.19,46.19,46.19-20.72,46.19-46.19-20.72-46.19-46.19-46.19Z"/>
  <rect x="1125.84" y="429.48" width="37.13" height="218.25"/>
  <path d="M1076.79,650.52c-45.94,0-83.32-37.38-83.32-83.32s37.38-83.32,83.32-83.32,83.32,37.38,83.32,83.32-37.38,83.32-83.32,83.32ZM1076.79,521.02c-25.47,0-46.19,20.72-46.19,46.19s20.72,46.19,46.19,46.19,46.19-20.72,46.19-46.19-20.72-46.19-46.19-46.19Z"/>
  <rect x="1378.91" y="486.59" width="37.13" height="161.13"/>
  <path d="M1329.86,650.52c-45.94,0-83.32-37.38-83.32-83.32s37.38-83.32,83.32-83.32,83.32,37.38,83.32,83.32-37.38,83.32-83.32,83.32ZM1329.86,521.02c-25.47,0-46.19,20.72-46.19,46.19s20.72,46.19,46.19,46.19,46.19-20.72,46.19-46.19-20.72-46.19-46.19-46.19Z"/>
  <rect x="1437.49" y="486.59" width="22.64" height="37.13"/>
</svg>
